<mxfile host="app.diagrams.net" modified="2024-02-26T18:04:22.376Z" agent="Mozilla/5.0 (X11; Ubuntu; Linux x86_64; rv:123.0) Gecko/20100101 Firefox/123.0" etag="8vvhCEu3KeJbaNdGTp-6" version="23.0.2" type="device">
  <diagram id="3228e29e-7158-1315-38df-8450db1d8a1d" name="Page-1">
    <mxGraphModel dx="4169" dy="2889" grid="1" gridSize="7" guides="1" tooltips="1" connect="1" arrows="1" fold="1" page="1" pageScale="1" pageWidth="1169" pageHeight="827" background="none" math="0" shadow="0">
      <root>
        <mxCell id="0" />
        <mxCell id="1" parent="0" />
        <mxCell id="9ZIgte_eGP6Cs3WeKvQb-21779" value="" style="rounded=0;whiteSpace=wrap;html=1;glass=0;gradientDirection=east;strokeColor=#000000;fillColor=#FFFFFF;" vertex="1" parent="1">
          <mxGeometry x="371" y="-1813" width="512" height="256" as="geometry" />
        </mxCell>
        <mxCell id="9ZIgte_eGP6Cs3WeKvQb-21724" value="" style="ellipse;shape=doubleEllipse;whiteSpace=wrap;html=1;gradientColor=#FFFFFF;gradientDirection=radial;fillColor=#000000;opacity=50;" vertex="1" parent="1">
          <mxGeometry x="102" y="-1485" width="32" height="32" as="geometry" />
        </mxCell>
        <mxCell id="9ZIgte_eGP6Cs3WeKvQb-21686" value="&lt;p style=&quot;line-height: 120%;&quot;&gt;&lt;br&gt;&lt;/p&gt;" style="whiteSpace=wrap;html=1;aspect=fixed;gradientColor=#9999FF;gradientDirection=radial;fillColor=#0066CC;shadow=0;glass=1;rounded=0;opacity=30;" vertex="1" parent="1">
          <mxGeometry x="-2471" y="-2422" width="1164" height="1164" as="geometry" />
        </mxCell>
        <mxCell id="21653" value="A" style="ellipse;whiteSpace=wrap;html=1;aspect=fixed;rounded=1;shadow=0;glass=0;labelBackgroundColor=none;strokeColor=none;strokeWidth=2;fillColor=#1699D3;gradientColor=none;fontFamily=Helvetica;fontSize=25;fontColor=#2F5B7C;align=left;opacity=50;labelPosition=right;verticalLabelPosition=middle;verticalAlign=middle;" parent="1" vertex="1">
          <mxGeometry x="205" y="171.5" width="41" height="41" as="geometry" />
        </mxCell>
        <mxCell id="21654" value="B" style="ellipse;whiteSpace=wrap;html=1;aspect=fixed;rounded=1;shadow=0;glass=0;labelBackgroundColor=none;strokeColor=none;strokeWidth=2;fillColor=#0E8088;gradientColor=none;fontFamily=Helvetica;fontSize=25;fontColor=#2F5B7C;align=left;opacity=50;labelPosition=right;verticalLabelPosition=middle;verticalAlign=middle;" parent="1" vertex="1">
          <mxGeometry x="205" y="251.5" width="41" height="41" as="geometry" />
        </mxCell>
        <mxCell id="21655" value="E" style="ellipse;whiteSpace=wrap;html=1;aspect=fixed;rounded=1;shadow=0;glass=0;labelBackgroundColor=none;strokeColor=none;strokeWidth=2;fillColor=#56517E;gradientColor=none;fontFamily=Helvetica;fontSize=25;fontColor=#2F5B7C;align=left;opacity=50;labelPosition=right;verticalLabelPosition=middle;verticalAlign=middle;" parent="1" vertex="1">
          <mxGeometry x="204.5" y="491.5" width="41" height="41" as="geometry" />
        </mxCell>
        <mxCell id="21656" value="C" style="ellipse;whiteSpace=wrap;html=1;aspect=fixed;rounded=1;shadow=0;glass=0;labelBackgroundColor=none;strokeColor=none;strokeWidth=2;fillColor=#F08705;gradientColor=none;fontFamily=Helvetica;fontSize=25;fontColor=#2F5B7C;align=left;opacity=50;labelPosition=right;verticalLabelPosition=middle;verticalAlign=middle;" parent="1" vertex="1">
          <mxGeometry x="205" y="331.5" width="41" height="41" as="geometry" />
        </mxCell>
        <mxCell id="21657" value="D" style="ellipse;whiteSpace=wrap;html=1;aspect=fixed;rounded=1;shadow=0;glass=0;labelBackgroundColor=none;strokeColor=none;strokeWidth=2;fillColor=#AE4132;gradientColor=none;fontFamily=Helvetica;fontSize=25;fontColor=#2F5B7C;align=left;opacity=50;labelPosition=right;verticalLabelPosition=middle;verticalAlign=middle;" parent="1" vertex="1">
          <mxGeometry x="205" y="411.5" width="41" height="41" as="geometry" />
        </mxCell>
        <mxCell id="21658" value="" style="group" parent="1" vertex="1" connectable="0">
          <mxGeometry x="270" y="70" width="679.2807142857143" height="709.2855297838693" as="geometry" />
        </mxCell>
        <mxCell id="21659" value="" style="ellipse;whiteSpace=wrap;html=1;aspect=fixed;rounded=1;shadow=0;glass=0;labelBackgroundColor=#FFFFFF;strokeColor=none;strokeWidth=2;fillColor=#F08705;gradientColor=none;fontFamily=Helvetica;fontSize=25;fontColor=#2F5B7C;align=left;opacity=50;" parent="21658" vertex="1">
          <mxGeometry x="171.21785714285716" y="252.549815498155" width="366.2857142857143" height="366.2857142857143" as="geometry" />
        </mxCell>
        <mxCell id="21660" value="" style="ellipse;whiteSpace=wrap;html=1;aspect=fixed;rounded=1;shadow=0;glass=0;labelBackgroundColor=#FFFFFF;strokeColor=none;strokeWidth=2;fillColor=#12AAB5;gradientColor=none;fontFamily=Helvetica;fontSize=25;fontColor=#2F5B7C;align=left;opacity=50;" parent="21658" vertex="1">
          <mxGeometry x="224.71428571428572" y="86.97785977859779" width="366.2857142857143" height="366.2857142857143" as="geometry" />
        </mxCell>
        <mxCell id="21661" value="" style="ellipse;whiteSpace=wrap;html=1;aspect=fixed;rounded=1;shadow=0;glass=0;labelBackgroundColor=#FFFFFF;strokeColor=none;strokeWidth=2;fillColor=#1699D3;gradientColor=none;fontFamily=Helvetica;fontSize=25;fontColor=#2F5B7C;align=left;opacity=50;" parent="21658" vertex="1">
          <mxGeometry x="109.64642857142857" width="366.2857142857143" height="366.2857142857143" as="geometry" />
        </mxCell>
        <mxCell id="21664" value="C" style="text;html=1;strokeColor=none;fillColor=none;align=center;verticalAlign=middle;whiteSpace=wrap;rounded=0;shadow=1;labelBackgroundColor=none;fontSize=18;fontColor=#23445D;" parent="21658" vertex="1">
          <mxGeometry x="428" y="501" width="40" height="20" as="geometry" />
        </mxCell>
        <mxCell id="21665" value="ABCE" style="text;html=1;strokeColor=none;fillColor=none;align=center;verticalAlign=middle;whiteSpace=wrap;rounded=0;shadow=1;labelBackgroundColor=none;fontSize=14;fontColor=#23445D;" parent="21658" vertex="1">
          <mxGeometry x="321" y="259" width="40" height="20" as="geometry" />
        </mxCell>
        <mxCell id="21666" value="ABCD" style="text;html=1;strokeColor=none;fillColor=none;align=center;verticalAlign=middle;whiteSpace=wrap;rounded=0;shadow=1;labelBackgroundColor=none;fontSize=14;fontColor=#23445D;" parent="21658" vertex="1">
          <mxGeometry x="344" y="325" width="40" height="20" as="geometry" />
        </mxCell>
        <mxCell id="21667" value="DEAB" style="text;html=1;strokeColor=none;fillColor=none;align=center;verticalAlign=middle;whiteSpace=wrap;rounded=0;shadow=1;labelBackgroundColor=none;fontSize=14;fontColor=#23445D;" parent="21658" vertex="1">
          <mxGeometry x="227" y="258" width="40" height="20" as="geometry" />
        </mxCell>
        <mxCell id="21668" value="A" style="text;html=1;strokeColor=none;fillColor=none;align=center;verticalAlign=middle;whiteSpace=wrap;rounded=0;shadow=1;labelBackgroundColor=none;fontSize=18;fontColor=#23445D;" parent="21658" vertex="1">
          <mxGeometry x="273" y="41" width="40" height="20" as="geometry" />
        </mxCell>
        <mxCell id="21669" value="B" style="text;html=1;strokeColor=none;fillColor=none;align=center;verticalAlign=middle;whiteSpace=wrap;rounded=0;shadow=1;labelBackgroundColor=none;fontSize=18;fontColor=#23445D;" parent="21658" vertex="1">
          <mxGeometry x="511" y="241.5" width="40" height="20" as="geometry" />
        </mxCell>
        <mxCell id="21670" value="D" style="text;html=1;strokeColor=none;fillColor=none;align=center;verticalAlign=middle;whiteSpace=wrap;rounded=0;shadow=1;labelBackgroundColor=none;fontSize=18;fontColor=#23445D;" parent="21658" vertex="1">
          <mxGeometry x="109.5" y="501" width="40" height="20" as="geometry" />
        </mxCell>
        <mxCell id="21671" value="E" style="text;html=1;strokeColor=none;fillColor=none;align=center;verticalAlign=middle;whiteSpace=wrap;rounded=0;shadow=1;labelBackgroundColor=none;fontSize=18;fontColor=#23445D;" parent="21658" vertex="1">
          <mxGeometry x="28" y="241.5" width="40" height="20" as="geometry" />
        </mxCell>
        <mxCell id="21672" value="AB" style="text;html=1;strokeColor=none;fillColor=none;align=center;verticalAlign=middle;whiteSpace=wrap;rounded=0;shadow=1;labelBackgroundColor=none;fontSize=16;fontColor=#23445D;" parent="21658" vertex="1">
          <mxGeometry x="388" y="142" width="40" height="20" as="geometry" />
        </mxCell>
        <mxCell id="21673" value="BC" style="text;html=1;strokeColor=none;fillColor=none;align=center;verticalAlign=middle;whiteSpace=wrap;rounded=0;shadow=1;labelBackgroundColor=none;fontSize=16;fontColor=#23445D;" parent="21658" vertex="1">
          <mxGeometry x="428" y="361" width="40" height="20" as="geometry" />
        </mxCell>
        <mxCell id="21674" value="CD" style="text;html=1;strokeColor=none;fillColor=none;align=center;verticalAlign=middle;whiteSpace=wrap;rounded=0;shadow=1;labelBackgroundColor=none;fontSize=16;fontColor=#23445D;" parent="21658" vertex="1">
          <mxGeometry x="271" y="521" width="40" height="20" as="geometry" />
        </mxCell>
        <mxCell id="21675" value="DE" style="text;html=1;strokeColor=none;fillColor=none;align=center;verticalAlign=middle;whiteSpace=wrap;rounded=0;shadow=1;labelBackgroundColor=none;fontSize=16;fontColor=#23445D;" parent="21658" vertex="1">
          <mxGeometry x="110" y="361" width="40" height="20" as="geometry" />
        </mxCell>
        <mxCell id="21676" value="EA" style="text;html=1;strokeColor=none;fillColor=none;align=center;verticalAlign=middle;whiteSpace=wrap;rounded=0;shadow=1;labelBackgroundColor=none;fontSize=16;fontColor=#23445D;" parent="21658" vertex="1">
          <mxGeometry x="151" y="163" width="40" height="20" as="geometry" />
        </mxCell>
        <mxCell id="21677" value="ABE" style="text;html=1;strokeColor=none;fillColor=none;align=center;verticalAlign=middle;whiteSpace=wrap;rounded=0;shadow=1;labelBackgroundColor=none;fontSize=14;fontColor=#23445D;" parent="21658" vertex="1">
          <mxGeometry x="271" y="201" width="40" height="20" as="geometry" />
        </mxCell>
        <mxCell id="21678" value="ABC" style="text;html=1;strokeColor=none;fillColor=none;align=center;verticalAlign=middle;whiteSpace=wrap;rounded=0;shadow=1;labelBackgroundColor=none;fontSize=14;fontColor=#23445D;" parent="21658" vertex="1">
          <mxGeometry x="374" y="281" width="40" height="20" as="geometry" />
        </mxCell>
        <mxCell id="21679" value="BCD" style="text;html=1;strokeColor=none;fillColor=none;align=center;verticalAlign=middle;whiteSpace=wrap;rounded=0;shadow=1;labelBackgroundColor=none;fontSize=14;fontColor=#23445D;" parent="21658" vertex="1">
          <mxGeometry x="348" y="402" width="40" height="20" as="geometry" />
        </mxCell>
        <mxCell id="21680" value="CDE" style="text;html=1;strokeColor=none;fillColor=none;align=center;verticalAlign=middle;whiteSpace=wrap;rounded=0;shadow=1;labelBackgroundColor=none;fontSize=14;fontColor=#23445D;" parent="21658" vertex="1">
          <mxGeometry x="205" y="392" width="40" height="20" as="geometry" />
        </mxCell>
        <mxCell id="21681" value="DEA" style="text;html=1;strokeColor=none;fillColor=none;align=center;verticalAlign=middle;whiteSpace=wrap;rounded=0;shadow=1;labelBackgroundColor=none;fontSize=14;fontColor=#23445D;" parent="21658" vertex="1">
          <mxGeometry x="171" y="281" width="40" height="20" as="geometry" />
        </mxCell>
        <mxCell id="21682" value="BCDE" style="text;html=1;strokeColor=none;fillColor=none;align=center;verticalAlign=middle;whiteSpace=wrap;rounded=0;shadow=1;labelBackgroundColor=none;fontSize=14;fontColor=#23445D;" parent="21658" vertex="1">
          <mxGeometry x="281" y="371" width="40" height="20" as="geometry" />
        </mxCell>
        <mxCell id="21683" value="CDEA" style="text;html=1;strokeColor=none;fillColor=none;align=center;verticalAlign=middle;whiteSpace=wrap;rounded=0;shadow=1;labelBackgroundColor=none;fontSize=14;fontColor=#23445D;" parent="21658" vertex="1">
          <mxGeometry x="202" y="325" width="40" height="20" as="geometry" />
        </mxCell>
        <mxCell id="21684" value="ABCDE" style="text;html=1;strokeColor=none;fillColor=none;align=center;verticalAlign=middle;whiteSpace=wrap;rounded=0;shadow=1;labelBackgroundColor=none;fontSize=14;fontColor=#23445D;" parent="21658" vertex="1">
          <mxGeometry x="273" y="311" width="40" height="20" as="geometry" />
        </mxCell>
        <mxCell id="21663" value="" style="ellipse;whiteSpace=wrap;html=1;aspect=fixed;rounded=1;shadow=0;glass=0;labelBackgroundColor=#FFFFFF;strokeColor=none;strokeWidth=2;fillColor=#AE4132;gradientColor=none;fontFamily=Helvetica;fontSize=25;fontColor=#2F5B7C;align=left;opacity=50;" parent="1" vertex="1">
          <mxGeometry x="970.005" y="252.999815498155" width="366.2857142857143" height="366.2857142857143" as="geometry" />
        </mxCell>
        <mxCell id="21662" value="" style="ellipse;whiteSpace=wrap;html=1;aspect=fixed;rounded=1;shadow=0;glass=0;labelBackgroundColor=#FFFFFF;strokeColor=none;strokeWidth=2;fillColor=#56517E;gradientColor=none;fontFamily=Helvetica;fontSize=25;fontColor=#2F5B7C;align=left;opacity=50;rotation=0;" parent="1" vertex="1">
          <mxGeometry x="-168" y="-168" width="350" height="350" as="geometry" />
        </mxCell>
        <mxCell id="9ZIgte_eGP6Cs3WeKvQb-21687" value="" style="rounded=0;whiteSpace=wrap;html=1;glass=1;gradientColor=#19A3FF;fillColor=#FF6666;gradientDirection=east;opacity=50;" vertex="1" parent="1">
          <mxGeometry x="196" y="-1421" width="512" height="256" as="geometry" />
        </mxCell>
        <mxCell id="9ZIgte_eGP6Cs3WeKvQb-21692" value="" style="ellipse;whiteSpace=wrap;html=1;aspect=fixed;fillColor=#dae8fc;strokeColor=#6c8ebf;" vertex="1" parent="1">
          <mxGeometry x="1127" y="-1694" width="80" height="80" as="geometry" />
        </mxCell>
        <mxCell id="9ZIgte_eGP6Cs3WeKvQb-21693" value="" style="ellipse;whiteSpace=wrap;html=1;aspect=fixed;fillColor=#dae8fc;strokeColor=#6c8ebf;" vertex="1" parent="1">
          <mxGeometry x="-33" y="-1694" width="80" height="80" as="geometry" />
        </mxCell>
        <mxCell id="9ZIgte_eGP6Cs3WeKvQb-21694" value="" style="ellipse;whiteSpace=wrap;html=1;aspect=fixed;fillColor=#dae8fc;strokeColor=#6c8ebf;" vertex="1" parent="1">
          <mxGeometry x="-42" y="-861" width="80" height="80" as="geometry" />
        </mxCell>
        <mxCell id="9ZIgte_eGP6Cs3WeKvQb-21695" value="" style="ellipse;whiteSpace=wrap;html=1;aspect=fixed;fillColor=#dae8fc;strokeColor=#6c8ebf;" vertex="1" parent="1">
          <mxGeometry x="1127" y="-861" width="80" height="80" as="geometry" />
        </mxCell>
        <mxCell id="9ZIgte_eGP6Cs3WeKvQb-21707" value="" style="html=1;whiteSpace=wrap;shape=isoCube2;backgroundOutline=1;isoAngle=15;gradientDirection=south;" vertex="1" parent="1">
          <mxGeometry x="102" y="-1547" width="32" height="20" as="geometry" />
        </mxCell>
        <mxCell id="9ZIgte_eGP6Cs3WeKvQb-21731" value="" style="triangle;whiteSpace=wrap;html=1;rotation=-90;gradientColor=default;gradientDirection=west;fillColor=default;opacity=60;" vertex="1" parent="1">
          <mxGeometry x="86" y="-1517" width="64" height="32" as="geometry" />
        </mxCell>
        <mxCell id="9ZIgte_eGP6Cs3WeKvQb-21741" value="" style="ellipse;shape=doubleEllipse;whiteSpace=wrap;html=1;gradientColor=#FFFFFF;gradientDirection=radial;fillColor=#000000;opacity=50;" vertex="1" parent="1">
          <mxGeometry x="150" y="-1486" width="32" height="32" as="geometry" />
        </mxCell>
        <mxCell id="9ZIgte_eGP6Cs3WeKvQb-21742" value="" style="html=1;whiteSpace=wrap;shape=isoCube2;backgroundOutline=1;isoAngle=15;gradientDirection=south;" vertex="1" parent="1">
          <mxGeometry x="150" y="-1548" width="32" height="20" as="geometry" />
        </mxCell>
        <mxCell id="9ZIgte_eGP6Cs3WeKvQb-21743" value="" style="triangle;whiteSpace=wrap;html=1;rotation=-90;gradientColor=default;gradientDirection=west;fillColor=default;opacity=60;" vertex="1" parent="1">
          <mxGeometry x="134" y="-1518" width="64" height="32" as="geometry" />
        </mxCell>
        <mxCell id="9ZIgte_eGP6Cs3WeKvQb-21747" value="" style="ellipse;shape=doubleEllipse;whiteSpace=wrap;html=1;gradientColor=#FFFFFF;gradientDirection=radial;fillColor=#000000;opacity=50;" vertex="1" parent="1">
          <mxGeometry x="198" y="-1487" width="32" height="32" as="geometry" />
        </mxCell>
        <mxCell id="9ZIgte_eGP6Cs3WeKvQb-21748" value="" style="html=1;whiteSpace=wrap;shape=isoCube2;backgroundOutline=1;isoAngle=15;gradientDirection=south;" vertex="1" parent="1">
          <mxGeometry x="198" y="-1549" width="32" height="20" as="geometry" />
        </mxCell>
        <mxCell id="9ZIgte_eGP6Cs3WeKvQb-21749" value="" style="triangle;whiteSpace=wrap;html=1;rotation=-90;gradientColor=default;gradientDirection=west;fillColor=default;opacity=60;" vertex="1" parent="1">
          <mxGeometry x="182" y="-1519" width="64" height="32" as="geometry" />
        </mxCell>
        <mxCell id="9ZIgte_eGP6Cs3WeKvQb-21750" value="" style="ellipse;shape=doubleEllipse;whiteSpace=wrap;html=1;gradientColor=#FFFFFF;gradientDirection=radial;fillColor=#000000;opacity=50;" vertex="1" parent="1">
          <mxGeometry x="387" y="-1737" width="32" height="32" as="geometry" />
        </mxCell>
        <mxCell id="9ZIgte_eGP6Cs3WeKvQb-21751" value="" style="html=1;whiteSpace=wrap;shape=isoCube2;backgroundOutline=1;isoAngle=15;gradientDirection=south;" vertex="1" parent="1">
          <mxGeometry x="387" y="-1799" width="32" height="20" as="geometry" />
        </mxCell>
        <mxCell id="9ZIgte_eGP6Cs3WeKvQb-21752" value="" style="triangle;whiteSpace=wrap;html=1;rotation=-90;gradientColor=default;gradientDirection=west;fillColor=default;opacity=60;" vertex="1" parent="1">
          <mxGeometry x="371" y="-1769" width="64" height="32" as="geometry" />
        </mxCell>
        <mxCell id="9ZIgte_eGP6Cs3WeKvQb-21759" value="" style="ellipse;shape=doubleEllipse;whiteSpace=wrap;html=1;gradientColor=#FFFFFF;gradientDirection=radial;fillColor=#000000;opacity=50;" vertex="1" parent="1">
          <mxGeometry x="426" y="-1212" width="32" height="32" as="geometry" />
        </mxCell>
        <mxCell id="9ZIgte_eGP6Cs3WeKvQb-21760" value="" style="html=1;whiteSpace=wrap;shape=isoCube2;backgroundOutline=1;isoAngle=15;gradientDirection=south;" vertex="1" parent="1">
          <mxGeometry x="426" y="-1274" width="32" height="20" as="geometry" />
        </mxCell>
        <mxCell id="9ZIgte_eGP6Cs3WeKvQb-21761" value="" style="triangle;whiteSpace=wrap;html=1;rotation=-90;gradientColor=default;gradientDirection=west;fillColor=default;opacity=60;" vertex="1" parent="1">
          <mxGeometry x="410" y="-1244" width="64" height="32" as="geometry" />
        </mxCell>
        <mxCell id="9ZIgte_eGP6Cs3WeKvQb-21762" value="" style="ellipse;shape=doubleEllipse;whiteSpace=wrap;html=1;gradientColor=#FFFFFF;gradientDirection=radial;fillColor=#000000;opacity=50;" vertex="1" parent="1">
          <mxGeometry x="520" y="-1326" width="32" height="32" as="geometry" />
        </mxCell>
        <mxCell id="9ZIgte_eGP6Cs3WeKvQb-21763" value="" style="html=1;whiteSpace=wrap;shape=isoCube2;backgroundOutline=1;isoAngle=15;gradientDirection=south;" vertex="1" parent="1">
          <mxGeometry x="520" y="-1388" width="32" height="20" as="geometry" />
        </mxCell>
        <mxCell id="9ZIgte_eGP6Cs3WeKvQb-21764" value="" style="triangle;whiteSpace=wrap;html=1;rotation=-90;gradientColor=default;gradientDirection=west;fillColor=default;opacity=60;" vertex="1" parent="1">
          <mxGeometry x="504" y="-1358" width="64" height="32" as="geometry" />
        </mxCell>
        <mxCell id="9ZIgte_eGP6Cs3WeKvQb-21765" value="" style="ellipse;shape=doubleEllipse;whiteSpace=wrap;html=1;gradientColor=#FFFFFF;gradientDirection=radial;fillColor=#000000;opacity=50;" vertex="1" parent="1">
          <mxGeometry x="325" y="-1294" width="32" height="32" as="geometry" />
        </mxCell>
        <mxCell id="9ZIgte_eGP6Cs3WeKvQb-21766" value="" style="html=1;whiteSpace=wrap;shape=isoCube2;backgroundOutline=1;isoAngle=15;gradientDirection=south;" vertex="1" parent="1">
          <mxGeometry x="325" y="-1356" width="32" height="20" as="geometry" />
        </mxCell>
        <mxCell id="9ZIgte_eGP6Cs3WeKvQb-21767" value="" style="triangle;whiteSpace=wrap;html=1;rotation=-90;gradientColor=default;gradientDirection=west;fillColor=default;opacity=60;" vertex="1" parent="1">
          <mxGeometry x="311" y="-1326" width="60" height="32" as="geometry" />
        </mxCell>
        <mxCell id="9ZIgte_eGP6Cs3WeKvQb-21774" value="" style="verticalAlign=top;verticalLabelPosition=bottom;labelPosition=center;align=center;html=1;outlineConnect=0;gradientDirection=north;strokeWidth=2;shape=mxgraph.networks.radio_tower;" vertex="1" parent="1">
          <mxGeometry x="196" y="-1421" width="32" height="48" as="geometry" />
        </mxCell>
        <mxCell id="9ZIgte_eGP6Cs3WeKvQb-21775" value="" style="verticalAlign=top;verticalLabelPosition=bottom;labelPosition=center;align=center;html=1;outlineConnect=0;gradientDirection=north;strokeWidth=2;shape=mxgraph.networks.radio_tower;" vertex="1" parent="1">
          <mxGeometry x="455" y="-1799" width="32" height="48" as="geometry" />
        </mxCell>
        <mxCell id="9ZIgte_eGP6Cs3WeKvQb-21777" value="" style="verticalAlign=top;verticalLabelPosition=bottom;labelPosition=center;align=center;html=1;outlineConnect=0;gradientDirection=north;strokeWidth=2;shape=mxgraph.networks.radio_tower;" vertex="1" parent="1">
          <mxGeometry x="196" y="-1212" width="32" height="48" as="geometry" />
        </mxCell>
        <mxCell id="9ZIgte_eGP6Cs3WeKvQb-21778" value="" style="verticalAlign=top;verticalLabelPosition=bottom;labelPosition=center;align=center;html=1;outlineConnect=0;gradientDirection=north;strokeWidth=2;shape=mxgraph.networks.radio_tower;" vertex="1" parent="1">
          <mxGeometry x="676" y="-1213" width="32" height="48" as="geometry" />
        </mxCell>
        <mxCell id="9ZIgte_eGP6Cs3WeKvQb-21782" value="" style="verticalAlign=top;verticalLabelPosition=bottom;labelPosition=center;align=center;html=1;outlineConnect=0;gradientDirection=north;strokeWidth=2;shape=mxgraph.networks.comm_link;fillColor=#FFCD28;strokeColor=none;gradientColor=none;rotation=80;" vertex="1" parent="1">
          <mxGeometry x="435" y="-1428" width="14" height="128" as="geometry" />
        </mxCell>
        <mxCell id="9ZIgte_eGP6Cs3WeKvQb-21783" value="" style="verticalAlign=top;verticalLabelPosition=bottom;labelPosition=center;align=center;html=1;outlineConnect=0;gradientDirection=north;strokeWidth=2;shape=mxgraph.networks.comm_link;fillColor=#60a917;strokeColor=none;fontColor=#ffffff;" vertex="1" parent="1">
          <mxGeometry x="959" y="-1515" width="32" height="128" as="geometry" />
        </mxCell>
        <mxCell id="9ZIgte_eGP6Cs3WeKvQb-21785" value="" style="verticalAlign=top;verticalLabelPosition=bottom;labelPosition=center;align=center;html=1;outlineConnect=0;gradientDirection=north;strokeWidth=2;shape=mxgraph.networks.radio_tower;" vertex="1" parent="1">
          <mxGeometry x="676" y="-1421" width="32" height="48" as="geometry" />
        </mxCell>
        <mxCell id="9ZIgte_eGP6Cs3WeKvQb-21786" value="Localization" style="text;html=1;align=center;verticalAlign=middle;resizable=0;points=[];autosize=1;strokeColor=none;fillColor=none;" vertex="1" parent="1">
          <mxGeometry x="522" y="-1810" width="84" height="35" as="geometry" />
        </mxCell>
        <mxCell id="9ZIgte_eGP6Cs3WeKvQb-21787" value="" style="verticalAlign=top;verticalLabelPosition=bottom;labelPosition=center;align=center;html=1;outlineConnect=0;gradientDirection=north;strokeWidth=2;shape=mxgraph.networks.comm_link;fillColor=#19A3FF;strokeColor=none;" vertex="1" parent="1">
          <mxGeometry x="547.5" y="-1782" width="32" height="128" as="geometry" />
        </mxCell>
        <mxCell id="9ZIgte_eGP6Cs3WeKvQb-21788" value="Onboard&lt;br&gt;Controller" style="text;html=1;align=center;verticalAlign=middle;resizable=0;points=[];autosize=1;strokeColor=none;fillColor=none;" vertex="1" parent="1">
          <mxGeometry x="609" y="-1812.5" width="70" height="49" as="geometry" />
        </mxCell>
        <mxCell id="9ZIgte_eGP6Cs3WeKvQb-21791" value="" style="verticalAlign=top;verticalLabelPosition=bottom;labelPosition=center;align=center;html=1;outlineConnect=0;gradientDirection=north;strokeWidth=2;shape=mxgraph.networks.comm_link;fillColor=#FFCD28;strokeColor=none;gradientColor=none;rotation=135;" vertex="1" parent="1">
          <mxGeometry x="378" y="-1344" width="14" height="82" as="geometry" />
        </mxCell>
        <mxCell id="9ZIgte_eGP6Cs3WeKvQb-21793" value="" style="verticalAlign=top;verticalLabelPosition=bottom;labelPosition=center;align=center;html=1;outlineConnect=0;gradientDirection=north;strokeWidth=2;shape=mxgraph.networks.comm_link;fillColor=#FFCD28;strokeColor=none;gradientColor=none;rotation=40;" vertex="1" parent="1">
          <mxGeometry x="478.5" y="-1365" width="14" height="96" as="geometry" />
        </mxCell>
        <mxCell id="9ZIgte_eGP6Cs3WeKvQb-21794" value="" style="verticalAlign=top;verticalLabelPosition=bottom;labelPosition=center;align=center;html=1;outlineConnect=0;gradientDirection=north;strokeWidth=2;shape=mxgraph.networks.comm_link;fillColor=#FFCD28;strokeColor=none;gradientColor=none;rotation=0;" vertex="1" parent="1">
          <mxGeometry x="798" y="-1557" width="42" height="143" as="geometry" />
        </mxCell>
        <mxCell id="9ZIgte_eGP6Cs3WeKvQb-21795" value="" style="verticalAlign=top;verticalLabelPosition=bottom;labelPosition=center;align=center;html=1;outlineConnect=0;gradientDirection=north;strokeWidth=2;shape=mxgraph.networks.comm_link;fillColor=#FFCD28;strokeColor=none;gradientColor=none;rotation=0;" vertex="1" parent="1">
          <mxGeometry x="623" y="-1769" width="42" height="143" as="geometry" />
        </mxCell>
        <mxCell id="9ZIgte_eGP6Cs3WeKvQb-21796" value="" style="verticalAlign=top;verticalLabelPosition=bottom;labelPosition=center;align=center;html=1;outlineConnect=0;gradientDirection=north;strokeWidth=2;shape=mxgraph.networks.comm_link;fillColor=#19A3FF;strokeColor=none;rotation=90;" vertex="1" parent="1">
          <mxGeometry x="448.38" y="-1614" width="6" height="405" as="geometry" />
        </mxCell>
        <mxCell id="9ZIgte_eGP6Cs3WeKvQb-21797" value="" style="verticalAlign=top;verticalLabelPosition=bottom;labelPosition=center;align=center;html=1;outlineConnect=0;gradientDirection=north;strokeWidth=2;shape=mxgraph.networks.comm_link;fillColor=#19A3FF;strokeColor=none;rotation=90;" vertex="1" parent="1">
          <mxGeometry x="450.13" y="-1374.12" width="4.25" height="405" as="geometry" />
        </mxCell>
        <mxCell id="9ZIgte_eGP6Cs3WeKvQb-21798" value="" style="verticalAlign=top;verticalLabelPosition=bottom;labelPosition=center;align=center;html=1;outlineConnect=0;gradientDirection=north;strokeWidth=2;shape=mxgraph.networks.comm_link;fillColor=#19A3FF;strokeColor=none;rotation=0;" vertex="1" parent="1">
          <mxGeometry x="204.5" y="-1367.75" width="11.5" height="149.5" as="geometry" />
        </mxCell>
        <mxCell id="9ZIgte_eGP6Cs3WeKvQb-21799" value="" style="verticalAlign=top;verticalLabelPosition=bottom;labelPosition=center;align=center;html=1;outlineConnect=0;gradientDirection=north;strokeWidth=2;shape=mxgraph.networks.comm_link;fillColor=#19A3FF;strokeColor=none;rotation=0;" vertex="1" parent="1">
          <mxGeometry x="686.25" y="-1368" width="11.5" height="129" as="geometry" />
        </mxCell>
        <mxCell id="9ZIgte_eGP6Cs3WeKvQb-21800" value="" style="fontColor=#0066CC;verticalAlign=top;verticalLabelPosition=bottom;labelPosition=center;align=center;html=1;outlineConnect=0;fillColor=#CCCCCC;strokeColor=#6881B3;gradientColor=none;gradientDirection=north;strokeWidth=2;shape=mxgraph.networks.laptop;" vertex="1" parent="1">
          <mxGeometry x="401.38" y="-1092" width="100" height="55" as="geometry" />
        </mxCell>
      </root>
    </mxGraphModel>
  </diagram>
</mxfile>
